<svg width="16" height="27" viewBox="0 0 16 27" fill="none" xmlns="http://www.w3.org/2000/svg">
<path d="M14.7368 4.42105H10.3158C9.50187 4.42105 8.84208 5.08084 8.84208 5.89474V10.3158H14.7368C14.9044 10.3121 15.0634 10.39 15.163 10.5249C15.2627 10.6597 15.2906 10.8345 15.2379 10.9937L14.1473 14.2358C14.0468 14.5334 13.7688 14.7345 13.4547 14.7368H8.84208V25.7895C8.84208 26.1964 8.51218 26.5263 8.10524 26.5263H4.42103C4.01408 26.5263 3.68418 26.1964 3.68418 25.7895V14.7368H1.47366C1.06671 14.7368 0.736816 14.4069 0.736816 14V11.0526C0.736816 10.6457 1.06671 10.3158 1.47366 10.3158H3.68418V5.89474C3.68418 2.63916 6.32335 0 9.57892 0H14.7368C15.1438 0 15.4737 0.329895 15.4737 0.736842V3.68421C15.4737 4.09116 15.1438 4.42105 14.7368 4.42105Z" fill="#707070"/>
</svg>
