<svg width="30" height="26" viewBox="0 0 30 26" fill="none" xmlns="http://www.w3.org/2000/svg">
<path d="M29.8516 4.10453C29.0911 5.11894 28.1719 6.00382 27.1294 6.72499C27.1294 6.98998 27.1294 7.25497 27.1294 7.53468C27.1377 12.3469 25.2155 16.9611 21.7937 20.3431C18.3719 23.725 13.7367 25.5916 8.92729 25.5246C6.14685 25.5339 3.402 24.899 0.90778 23.6696C0.773292 23.6109 0.686549 23.4779 0.68706 23.331V23.1691C0.68706 22.9577 0.858348 22.7863 1.06964 22.7863C3.80276 22.6963 6.43836 21.7486 8.60357 20.0776C6.12972 20.0277 3.90389 18.5622 2.87955 16.3088C2.82781 16.1857 2.84392 16.0446 2.92206 15.9363C3.0002 15.8281 3.12908 15.7684 3.26213 15.7788C4.01399 15.8544 4.77336 15.7844 5.49877 15.5727C2.76785 15.0058 0.715866 12.7387 0.422195 9.96376C0.411758 9.83064 0.471412 9.70171 0.579607 9.62353C0.687803 9.54535 0.828899 9.52923 0.951925 9.581C1.68478 9.90437 2.4759 10.0747 3.27685 10.0815C0.883914 8.51093 -0.149675 5.5236 0.760633 2.80902C0.854599 2.54525 1.08035 2.35038 1.35493 2.29605C1.62951 2.24171 1.91241 2.33591 2.09967 2.54403C5.32879 5.98078 9.76564 8.02872 14.4747 8.25605C14.3541 7.77473 14.2948 7.28008 14.2982 6.78388C14.3422 4.18201 15.9521 1.86421 18.3741 0.915594C20.7961 -0.0330264 23.551 0.575271 25.3489 2.4557C26.5745 2.22223 27.7593 1.81057 28.8657 1.2338C28.9468 1.1832 29.0495 1.1832 29.1306 1.2338C29.1812 1.31489 29.1812 1.41771 29.1306 1.49879C28.5947 2.726 27.6893 3.75529 26.5408 4.44313C27.5465 4.3265 28.5346 4.08925 29.4837 3.73649C29.5637 3.68209 29.6687 3.68209 29.7486 3.73649C29.8155 3.76712 29.8656 3.82569 29.8854 3.8966C29.9053 3.96752 29.8929 4.04358 29.8516 4.10453Z" fill="#707070"/>
</svg>
