<svg width="28" height="27" viewBox="0 0 28 27" fill="none" xmlns="http://www.w3.org/2000/svg">
<path fill-rule="evenodd" clip-rule="evenodd" d="M19.8421 0.473694H8.05263C3.98316 0.473694 0.684204 3.77265 0.684204 7.84211V19.6316C0.684204 23.7011 3.98316 27 8.05263 27H19.8421C23.9116 27 27.2105 23.7011 27.2105 19.6316V7.84211C27.2105 3.77265 23.9116 0.473694 19.8421 0.473694ZM24.6316 19.6316C24.6235 22.2734 22.4839 24.413 19.8421 24.4211H8.05263C5.41084 24.413 3.27125 22.2734 3.26316 19.6316V7.84211C3.27125 5.20031 5.41084 3.06072 8.05263 3.05263H19.8421C22.4839 3.06072 24.6235 5.20031 24.6316 7.84211V19.6316ZM20.9474 8.21053C21.7613 8.21053 22.4211 7.55074 22.4211 6.73684C22.4211 5.92295 21.7613 5.26316 20.9474 5.26316C20.1335 5.26316 19.4737 5.92295 19.4737 6.73684C19.4737 7.55074 20.1335 8.21053 20.9474 8.21053ZM13.9474 7.10528C10.2848 7.10528 7.31579 10.0743 7.31579 13.7369C7.31579 17.3994 10.2848 20.3684 13.9474 20.3684C17.6099 20.3684 20.5789 17.3994 20.5789 13.7369C20.5829 11.9769 19.8855 10.2878 18.6409 9.04329C17.3964 7.79878 15.7074 7.10136 13.9474 7.10528ZM9.89474 13.7368C9.89474 15.975 11.7092 17.7895 13.9474 17.7895C16.1856 17.7895 18 15.975 18 13.7368C18 11.4986 16.1856 9.68421 13.9474 9.68421C11.7092 9.68421 9.89474 11.4986 9.89474 13.7368Z" fill="#707070"/>
</svg>
