<svg width="28" height="27" viewBox="0 0 28 27" fill="none" xmlns="http://www.w3.org/2000/svg">
<path fill-rule="evenodd" clip-rule="evenodd" d="M0 3.12074C0 1.3972 1.3972 0 3.12074 0C3.94842 0 4.74219 0.328792 5.32744 0.914045C5.91269 1.4993 6.24149 2.29307 6.24149 3.12074C6.24149 4.84428 4.84428 6.24149 3.12074 6.24149C1.3972 6.24149 0 4.84428 0 3.12074ZM27.3066 16.2434C27.3604 12.865 25.0557 9.90458 21.7673 9.12811C19.5637 8.6536 17.2667 9.27582 15.6039 10.7977V10.1423C15.6039 9.71146 15.2546 9.36216 14.8237 9.36216H10.9227C10.4919 9.36216 10.1426 9.71146 10.1426 10.1423V25.7461C10.1426 26.1769 10.4919 26.5263 10.9227 26.5263H14.8237C15.2546 26.5263 15.6039 26.1769 15.6039 25.7461V16.9456C15.5653 15.3785 16.6575 14.01 18.1941 13.7C19.109 13.5421 20.0467 13.7997 20.7525 14.403C21.4583 15.0062 21.8589 15.8924 21.8453 16.8207V25.7461C21.8453 26.1769 22.1946 26.5263 22.6255 26.5263H26.5265C26.9573 26.5263 27.3066 26.1769 27.3066 25.7461V16.2434ZM6.2415 10.1424V25.7461C6.2415 26.177 5.8922 26.5263 5.46131 26.5263H1.56038C1.1295 26.5263 0.780196 26.177 0.780196 25.7461V10.1424C0.780196 9.71148 1.1295 9.36218 1.56038 9.36218H5.46131C5.8922 9.36218 6.2415 9.71148 6.2415 10.1424Z" fill="#707070"/>
</svg>
