<svg width="32" height="29" viewBox="0 0 32 29" fill="none" xmlns="http://www.w3.org/2000/svg">
<path fill-rule="evenodd" clip-rule="evenodd" d="M16 3.24486C17.8538 1.25443 20.451 0.0839209 23.2 0C28.0601 0 32 3.86003 32 8.62162C32 14.259 25.6036 20.4372 21.7674 24.1426C21.422 24.4762 21.0973 24.7898 20.8 25.0811L17.152 28.6551C16.9272 28.8757 16.6222 28.9997 16.304 29H15.696C15.3778 28.9997 15.0728 28.8757 14.848 28.6551L11.2 25.0811C10.9027 24.7898 10.578 24.4762 10.2326 24.1426C6.3964 20.4372 0 14.259 0 8.62162C0 3.86003 3.93989 0 8.8 0C11.549 0.0839209 14.1462 1.25443 16 3.24486ZM16.0002 25.3474L19.5202 21.9458C22.7682 18.8107 28.8002 12.948 28.8002 8.62151C28.8002 7.15822 28.2036 5.75554 27.143 4.72527C26.0824 3.69499 24.6457 3.12249 23.1522 3.13503C20.6647 3.36127 18.4192 4.6893 17.0562 6.74044C16.9035 6.93589 16.6674 7.05154 16.4162 7.05395H15.6962C15.3223 7.05296 14.9692 6.88573 14.7362 6.59935C13.3947 4.62382 11.2121 3.34998 8.80016 3.13503C5.70736 3.13503 3.20016 5.59141 3.20016 8.62151C3.20016 12.948 9.23216 18.8107 12.4802 21.9458L16.0002 25.3474Z" fill="#707070"/>
</svg>
